# xmcd CD database file
#
# Track frame offsets:
#	150
#	13473
#	31575
#	50924
#	65406
#	87796
#	97466
#	117278
#	140880
#	153184
#	170749
#	191383
#	209394
#	226009
#
# Disc length: 3145 seconds
#
# Revision: 0
# Processed by: cddbd v1.5.2PL0 Copyright (c) Steve Scherf et al.
# Submitted via: CDex 1.51
#
DISCID=c50c470e
DTITLE=Wolfgang Ambros - Ultimativ Symphonisch 
DYEAR=2009
DGENRE=Austropop
TTITLE0=A Mensch Möcht I Bleibn
TTITLE1=I Glaub I Geh Jetzt
TTITLE2=Langsam Wochs Ma Zamm
TTITLE3=Du Bist Wia De Wintasun
TTITLE4=Gezeichnet Fürs Leben
TTITLE5=De Bestn Liada
TTITLE6=Wie Wird Des Weitergehn 
TTITLE7=Es Lebe Der Zentralfriedhof 
TTITLE8=Die Blume Aus Dem Gemeindebau
TTITLE9=Du Schworzer Afghane
TTITLE10=Weiß Wie Schnee 
TTITLE11=Schifoahn 
TTITLE12=Baba Und Foi Ned
TTITLE13=Wie Hört Des Auf (Instrumental)
EXTD=YEAR: 2009
EXTT0=
EXTT1=
EXTT2=
EXTT3=
EXTT4=
EXTT5=
EXTT6=
EXTT7=
EXTT8=
EXTT9=
EXTT10=
EXTT11=
EXTT12=
EXTT13=
PLAYORDER=
